# xmcd
#
# Track frame offsets: 
#        150
#        10252
#        22057
#        32087
#        40120
#        51867
#        62400
#        77005
#        89787
#        109455
#        121250
#        133420
#        139355
#        155855
#        168530
#        184832
#        194862
#        215352
#
# Disc length: 3051 seconds
#
# Revision: 7
# Processed by: cddbd v1.5.2PL0 Copyright (c) Steve Scherf et al.
# Submitted via: ExactAudioCopy v1.0b3
#
DISCID=150be912
DTITLE=Various Artist - Nashville Legends - 18 great country hits
DYEAR=1999
DGENRE=Country
TTITLE0=George Jones - The Race Is On
TTITLE1=Johnny Cash - The Highwayman
TTITLE2=Boxcar Willie - King Of The Road
TTITLE3=Willie Nelson - Things To Remember
TTITLE4=Kenny Rogers - Me And Bobby McGee
TTITLE5=Charley Pride - Oklahoma Morning
TTITLE6=Johnny Rodriguez - How Could I Love Her So Much
TTITLE7=Don Williams - Where Do I Go From Here
TTITLE8=Merle Haggard - The Bottle Let Me Down
TTITLE9=Johnny Cash - Sixteen Tons
TTITLE10=Boxcar Willie - Hobo Heaven
TTITLE11=Jim Reeves - Have I Told You Lately That I Love You
TTITLE12=Bobby Bare - Marie Lavaux
TTITLE13=Willie Nelson - I Just Don't Understand
TTITLE14=Merle Haggard - Ramblin' Fever
TTITLE15=Don Williams - Take My Hand For A While
TTITLE16=Gary morris - The Wind Beneath My Wings
TTITLE17=Kenny Rogers - Ruby Don't Take Your Love To Town
EXTD=YEAR: 1999
EXTT0=
EXTT1=Live
EXTT2=
EXTT3=
EXTT4=
EXTT5=Live
EXTT6=Live
EXTT7=
EXTT8=Live
EXTT9=Live
EXTT10=
EXTT11=Live
EXTT12=Live
EXTT13=
EXTT14=Live
EXTT15=
EXTT16=Live
EXTT17=
PLAYORDER=
